HIERARCHY
ROOT hips
{
  OFFSET 0 11.86390953 0.3628582958
  CHANNELS 6 Xposition Yposition Zposition Yrotation Xrotation Zrotation
  JOINT spine
  {
    OFFSET 0 0.05383551117999996 0
    CHANNELS 3 Yrotation Xrotation Zrotation
    JOINT chest
    {
      OFFSET 0 0.6394558760401424 0
      CHANNELS 3 Yrotation Xrotation Zrotation
      JOINT neck
      {
        OFFSET 0 2.720089088562982 0
        CHANNELS 3 Yrotation Xrotation Zrotation
        JOINT head
        {
          OFFSET 0 0.37880844870545777 0
          CHANNELS 3 Yrotation Xrotation Zrotation
          JOINT rightEye
          {
            OFFSET -0.42867780714 0.7547055649100001 0.7381831347
            CHANNELS 3 Yrotation Xrotation Zrotation
            End Site
            {
              OFFSET -0.42867780714 0.7547055649100001 0.7381831347
            }
          }
          JOINT leftEye
          {
            OFFSET 0.428676479 0.7547055559999993 0.7381844503
            CHANNELS 3 Yrotation Xrotation Zrotation
            End Site
            {
              OFFSET 0.428676479 0.7547055559999993 0.7381844503
            }
          }
          JOINT jaw
          {
            OFFSET -0.18933892286100001 1.5626303011000007 1.137441874206
            CHANNELS 3 Yrotation Xrotation Zrotation
            End Site
            {
              OFFSET -0.18933892286100001 1.5626303011000007 1.137441874206
            }
          }
        }
      }
      JOINT rightShoulder
      {
        OFFSET -0.6795351508 2.0665205 0
        CHANNELS 3 Yrotation Xrotation Zrotation
        JOINT rightUpperArm
        {
          OFFSET -0.7287400483531672 0 0
          CHANNELS 3 Yrotation Xrotation Zrotation
          JOINT rightLowerArm
          {
            OFFSET -1.9872982039174532 0 0
            CHANNELS 3 Yrotation Xrotation Zrotation
            JOINT rightHand
            {
              OFFSET -2.6451847532219275 0 0
              CHANNELS 3 Yrotation Xrotation Zrotation
              JOINT rightLittleProximal
              {
                OFFSET -0.8008804099999995 -0.09592044000000044 -0.26183688629999996
                CHANNELS 3 Yrotation Xrotation Zrotation
                JOINT rightLittleIntermediate
                {
                  OFFSET -0.2473955153999997 -0.02541697026000067 0.002370178700999967
                  CHANNELS 3 Yrotation Xrotation Zrotation
                  JOINT rightLittleDistal
                  {
                    OFFSET -0.163687229200001 -0.015790700860001117 -0.0004274845300000635
                    CHANNELS 3 Yrotation Xrotation Zrotation
                    End Site
                    {
                      OFFSET -0.163687229200001 -0.015790700860001117 -0.0004274845300000635
                    }
                  }
                }
              }
              JOINT rightRingProximal
              {
                OFFSET -0.8393382799999985 -0.06223833561000025 -0.09213143500000005
                CHANNELS 3 Yrotation Xrotation Zrotation
                JOINT rightRingIntermediate
                {
                  OFFSET -0.3284497260000011 -0.03264224524000103 0.009408593183000052
                  CHANNELS 3 Yrotation Xrotation Zrotation
                  JOINT rightRingDistal
                  {
                    OFFSET -0.19447660429999902 -0.021730899850000318 0.003074347969000052
                    CHANNELS 3 Yrotation Xrotation Zrotation
                    End Site
                    {
                      OFFSET -0.19447660429999902 -0.021730899850000318 0.003074347969000052
                    }
                  }
                }
              }
              JOINT rightMiddleProximal
              {
                OFFSET -0.8473005199999989 -0.06735503500000095 0.10541820299999995
                CHANNELS 3 Yrotation Xrotation Zrotation
                JOINT rightMiddleIntermediate
                {
                  OFFSET -0.3450455799999995 -0.02481901642000084 0.019012570390000032
                  CHANNELS 3 Yrotation Xrotation Zrotation
                  JOINT rightMiddleDistal
                  {
                    OFFSET -0.23542332000000088 -0.025003910029999243 0.0075583457949999905
                    CHANNELS 3 Yrotation Xrotation Zrotation
                    End Site
                    {
                      OFFSET -0.23542332000000088 -0.025003910029999243 0.0075583457949999905
                    }
                  }
                }
              }
              JOINT rightIndexProximal
              {
                OFFSET -0.8008568281999987 -0.09897839600000169 0.29462796
                CHANNELS 3 Yrotation Xrotation Zrotation
                JOINT rightIndexIntermediate
                {
                  OFFSET -0.30524754480000016 -0.024634122809999992 0.02743375304999998
                  CHANNELS 3 Yrotation Xrotation Zrotation
                  JOINT rightIndexDistal
                  {
                    OFFSET -0.23067378950000017 -0.016876459159999913 0.008484125099999983
                    CHANNELS 3 Yrotation Xrotation Zrotation
                    End Site
                    {
                      OFFSET -0.23067378950000017 -0.016876459159999913 0.008484125099999983
                    }
                  }
                }
              }
              JOINT rightThumbProximal
              {
                OFFSET -0.25574064999999935 -0.12833189930000155 0.22385698609999993
                CHANNELS 3 Yrotation Xrotation Zrotation
                JOINT rightThumbIntermediate
                {
                  OFFSET -0.22791743260000086 -0.07103586192999978 0.27385039
                  CHANNELS 3 Yrotation Xrotation Zrotation
                  JOINT rightThumbDistal
                  {
                    OFFSET -0.13610267659999975 -0.03369390969999997 0.14246511509999996
                    CHANNELS 3 Yrotation Xrotation Zrotation
                    End Site
                    {
                      OFFSET -0.13610267659999975 -0.03369390969999997 0.14246511509999996
                    }
                  }
                }
              }
            }
          }
        }
      }
      JOINT leftShoulder
      {
        OFFSET 0.6795338396 2.0665205 0
        CHANNELS 3 Yrotation Xrotation Zrotation
        JOINT leftUpperArm
        {
          OFFSET 0.7287383950230443 0 0
          CHANNELS 3 Yrotation Xrotation Zrotation
          JOINT leftLowerArm
          {
            OFFSET 1.9872997282019604 0 0
            CHANNELS 3 Yrotation Xrotation Zrotation
            JOINT leftHand
            {
              OFFSET 2.6451820781302327 0 0
              CHANNELS 3 Yrotation Xrotation Zrotation
              JOINT leftLittleProximal
              {
                OFFSET 0.8008804099999995 -0.09592306899999814 -0.2618342639000001
                CHANNELS 3 Yrotation Xrotation Zrotation
                JOINT leftLittleIntermediate
                {
                  OFFSET 0.2473981400000007 -0.02542352681000093 0.0023609995859999455
                  CHANNELS 3 Yrotation Xrotation Zrotation
                  JOINT leftLittleDistal
                  {
                    OFFSET 0.1636846068000002 -0.015794634789999318 -0.00043272972159996703
                    CHANNELS 3 Yrotation Xrotation Zrotation
                    End Site
                    {
                      OFFSET 0.1636846068000002 -0.015794634789999318 -0.00043272972159996703
                    }
                  }
                }
              }
              JOINT leftRingProximal
              {
                OFFSET 0.8393409199999996 -0.062242267999998324 -0.0921281570000001
                CHANNELS 3 Yrotation Xrotation Zrotation
                JOINT leftRingIntermediate
                {
                  OFFSET 0.3284471036000003 -0.03264224524000103 0.009405970574000042
                  CHANNELS 3 Yrotation Xrotation Zrotation
                  JOINT leftRingDistal
                  {
                    OFFSET 0.1944779099999996 -0.021732211159998904 0.003073036670000001
                    CHANNELS 3 Yrotation Xrotation Zrotation
                    End Site
                    {
                      OFFSET 0.1944779099999996 -0.021732211159998904 0.003073036670000001
                    }
                  }
                }
              }
              JOINT leftMiddleProximal
              {
                OFFSET 0.8473005200000001 -0.06736028199999788 0.1054214809999999
                CHANNELS 3 Yrotation Xrotation Zrotation
                JOINT leftMiddleIntermediate
                {
                  OFFSET 0.3450455799999995 -0.024824261000000014 0.019013225990000007
                  CHANNELS 3 Yrotation Xrotation Zrotation
                  JOINT leftMiddleDistal
                  {
                    OFFSET 0.2354259489999998 -0.025005222000000327 0.0075590014499999705
                    CHANNELS 3 Yrotation Xrotation Zrotation
                    End Site
                    {
                      OFFSET 0.2354259489999998 -0.025005222000000327 0.0075590014499999705
                    }
                  }
                }
              }
              JOINT leftIndexProximal
              {
                OFFSET 0.8008594516999996 -0.09898495199999946 0.29463124239999994
                CHANNELS 3 Yrotation Xrotation Zrotation
                JOINT leftIndexIntermediate
                {
                  OFFSET 0.30524754480000016 -0.024632811499998963 0.02743047472
                  CHANNELS 3 Yrotation Xrotation Zrotation
                  JOINT leftIndexDistal
                  {
                    OFFSET 0.23067378950000017 -0.016876459159999913 0.008481502700000004
                    CHANNELS 3 Yrotation Xrotation Zrotation
                    End Site
                    {
                      OFFSET 0.23067378950000017 -0.016876459159999913 0.008481502700000004
                    }
                  }
                }
              }
              JOINT leftThumbProximal
              {
                OFFSET 0.25574326469999953 -0.12833321050000013 0.22385764169999997
                CHANNELS 3 Yrotation Xrotation Zrotation
                JOINT leftThumbIntermediate
                {
                  OFFSET 0.22804987480000094 -0.07138466829999968 0.273648441
                  CHANNELS 3 Yrotation Xrotation Zrotation
                  JOINT leftThumbDistal
                  {
                    OFFSET 0.13614857189999907 -0.033867001519998885 0.14238119169999996
                    CHANNELS 3 Yrotation Xrotation Zrotation
                    End Site
                    {
                      OFFSET 0.13614857189999907 -0.033867001519998885 0.14238119169999996
                    }
                  }
                }
              }
            }
          }
        }
      }
    }
  }
  JOINT rightUpperLeg
  {
    OFFSET -0.9749898906000001 -1.8495733739999998 0
    CHANNELS 3 Yrotation Xrotation Zrotation
    JOINT rightLowerLeg
    {
      OFFSET 0 -4.1566544686813165 0
      CHANNELS 3 Yrotation Xrotation Zrotation
      JOINT rightFoot
      {
        OFFSET 0.14539718599999998 -4.225553926 -0.3666210900000001
        CHANNELS 3 Yrotation Xrotation Zrotation
        JOINT rightToes
        {
          OFFSET 0.1706738473 -0.9584117400000015 1.0093348617
          CHANNELS 3 Yrotation Xrotation Zrotation
          End Site
          {
            OFFSET 0.1706738473 -0.9584117400000015 1.0093348617
          }
        }
      }
    }
  }
  JOINT leftUpperLeg
  {
    OFFSET 0.9749898906000001 -1.8495733739999998 0
    CHANNELS 3 Yrotation Xrotation Zrotation
    JOINT leftLowerLeg
    {
      OFFSET 0 -4.156653488267941 0
      CHANNELS 3 Yrotation Xrotation Zrotation
      JOINT leftFoot
      {
        OFFSET -0.14537357999999995 -4.225555399999999 -0.36661124279999996
        CHANNELS 3 Yrotation Xrotation Zrotation
        JOINT leftToes
        {
          OFFSET -0.17066467000000002 -0.9584157000000019 1.0093348617
          CHANNELS 3 Yrotation Xrotation Zrotation
          End Site
          {
            OFFSET -0.17066467000000002 -0.9584157000000019 1.0093348617
          }
        }
      }
    }
  }
}
MOTION
Frames: 4
Frame Time: 0.03333333333333333
0.05443846434354782 -0.30074386532714925 0.027576033025979996 1.5086441227726308 -0.8959921322228467 -5.402368114246114 -1.158769283058393 1.2968934442112168 3.0055758112853095 1.2666114727989695 1.339045262995505 11.80853904100285 -0.3326689789611196 1.0447748186902375 -2.165939783362707 0.4395031092003316 1.5774492900591783 -8.13468443172564 0 0 0 0 0 0 0 0 0 3.405172124256283 4.498129779248412 5.695683893860892 1.3394204998471302 -1.6742163294053487 67.30133222515694 17.73525639863297 0.035172654979587166 -0.22546500799678304 -9.16383718474474 -11.056648216170666 12.027345050553679 -15.602424658259586 5.214467995580413 35.64273435767532 -3.4992950139223145 1.0430477748463458 45.60929358540546 -0.03321763117798095 -0.819741219704969 22.12304769204064 -11.331871315805921 2.4322639307235634 26.554258880525076 -3.4338254170253584 1.538932096294971 40.160243673644565 0.24966261489576924 -0.18717139514606632 17.812872063529923 -8.623131937666097 0.8982378321857601 15.807229978808051 -3.4932535998413927 0.7745494338299506 33.390610628675375 -1.5230922650882353 0.1875354381709582 15.913363046500322 -4.588714699551456 0.33648893588554923 7.877053815248348 -2.534938737442656 0.33654557940787894 20.583278499913618 -0.04944281523426873 -0.21471873160788407 13.845810611223042 -0.4730831736366649 18.648785860072046 -11.237348400329845 -31.73819023248936 0.8893966239773599 3.1664084276878106 -7.698774329113474 1.6458801756407149 1.1068954249844587 -13.854263710980481 3.4969864223473293 -5.72528068293642 2.783554537831476 3.37036558224602 -83.51892457370523 -14.505516951997192 0.023570396521152313 0.18539353514314386 4.035408291347842 -27.542709072168343 -11.331089818852268 15.842055615600941 5.385659723371359 -35.625569051143444 3.461917046608719 1.3046845357027876 -45.6049228273208 2.5732421997995556 0.5107422700929097 -20.536097069773227 11.348364063902848 2.440540637332413 -26.55378187106573 3.4098096439621424 1.5344485990801056 -40.16007933086974 1.5898173457169553 0.503381972779206 -19.35105754712496 8.564241430298038 0.8816015400722379 -15.807299096325261 3.5864490557499282 0.795817598515131 -33.391468298963176 1.3339415006786837 0.1540859450370339 -12.278669923392458 4.5649888481846075 0.3332221553612944 -7.876698550039985 2.5749950434814157 0.3426766623471362 -20.583700214571255 0.6785085599094567 0.022937950300385517 -10.178994783666523 0.3620999347683519 18.625570123840955 11.179671697742645 31.852903233191704 0.9234775034923185 -3.1230214392550932 8.671561816744273 1.805800114583233 -0.29955130792645257 -4.8325119810129795 -1.6069166051145138 10.752148715028953 -5.161643787718544 12.396391584349674 2.22279889148339 0.9235747219378047 -9.849681335108281 -7.926964815797617 4.377900862244519e-7 -0.5486530415981868 0.000002815047756398636 11.654891446511112 -19.192249605989613 11.916338433917296 10.299380051554815 21.72354870529129 6.06212301103361 3.220844693381144 -1.4770896718212942 -8.909866154781835 0.0000018260863762679742 -0.4419667943221917 -0.0000010118843327751655
0.07131068408489227 -0.29796867306640706 0.016417406499385834 1.4305578078088006 -1.0331141956561536 -5.339308721756699 -1.2371826398437302 1.3643959480922785 2.966494383525604 1.23482224543787 1.3963263170522897 11.796772368999687 -0.3462409295116841 0.9774786483215891 -2.1531251252955723 0.38740551571029 1.3704930947225342 -8.186139701719314 0 0 0 0 0 0 0 0 0 3.7738810240608007 4.431588347076217 6.559718751473757 2.280585627417413 -1.3969911773573438 66.38581869566339 17.560155950320947 0.03450272602296932 -0.22329966740221438 -8.110062310467761 -10.6038043253935 11.794225426578988 -15.602417130073537 5.214464994954511 35.64272478725198 -3.499295227003077 1.043042331137336 45.609298415605735 -0.033226570034246575 -0.8197394052502691 22.12304769204064 -11.331863774844289 2.4322632898159298 26.554264994996654 -3.433828400944543 1.5389253704015358 40.16023885945496 0.24966573649272158 -0.1871665526228282 17.812876359639088 -8.623133626118609 0.8982366581027196 15.807235838727879 -3.4932478520136145 0.7745398813644594 33.39060116607288 -1.5230901313968404 0.18752740731958176 15.91336140438191 -4.588711295344735 0.3364862144351206 7.877062740611902 -2.534938737442656 0.3365428846383212 20.58325851433644 -0.0494459868910421 -0.21470395054784713 13.845815585052499 -0.4730677994196399 18.648791266574403 -11.237312345600953 -31.738202540125968 0.8893874981720701 3.1664016315885477 -7.698768404124448 1.6458802824064684 1.1069048186174466 -14.216869321625218 3.394090374341279 -6.278828327206868 1.1956752568984514 3.9660246532882413 -82.21069458776255 -15.624632510575237 0.0273332424888577 0.19935268382910218 2.4292687815920937 -26.718536300076206 -10.663863230838222 15.855530262091575 5.396286263056426 -35.81989616625344 3.4758372696518856 1.3174489118585113 -45.82032333043959 2.588305783480161 0.5184527440779095 -20.727955524681942 11.348091003127816 2.4562281080077306 -26.75067314000999 3.42229898269712 1.547682608414525 -40.36877680243072 1.6047304204037305 0.5106192150782681 -19.542844684066015 8.585746999164554 0.8939711101679858 -16.00341648702249 3.601454531697223 0.8052707559950939 -33.59501553124539 1.3483664202536114 0.15775190256615843 -12.449933417295844 4.582230435984182 0.3356096406276937 -8.073538779897042 2.5907512955029004 0.3486454491700762 -20.775031853879497 0.6935131776165013 0.02500953885297795 -10.350296857382078 0.362100897398714 18.625561114235364 11.17967718605436 31.852910838064656 0.9234870029580095 -3.1230214392550932 8.671552857260314 1.8057947758466046 -0.29954789118173186 -4.7951166106893135 -1.6097272680046186 10.575568424042483 -5.052388824543857 12.528244824601387 2.2430866466686434 0.8514890157883757 -9.841822717576646 -7.837729246392916 0.0000021428812017390017 -0.573825897805785 6.507952803438823e-7 11.649203083755674 -19.007575176405016 11.750810059404028 10.47528577583095 21.631071143173415 6.166714367784337 3.21133408272788 -1.4420122061227116 -8.841370596370572 0.000010960349835730305 -0.4557984853132288 0.0000022810127344588734
0.10998699069023132 -0.2929819100659188 -0.00857596006244421 1.3417611011976232 -1.343512897216342 -5.214009030715819 -1.324901060542698 1.571353713123767 2.8959411765501946 1.2088829054844101 1.573799735383738 11.773472601053843 -0.3989015280870893 0.7785376167395879 -2.1248890756115895 0.1739728032542622 0.8317131165344434 -8.24700563584953 0 0 0 0 0 0 0 0 0 4.6322966337113485 4.3313029928943845 7.922827086333468 6.92640883460772 0.4430322822476955 63.70608164621988 17.878951577358094 0.03574801515102254 -0.2272212873492015 -7.189387456297419 -11.40827283714903 14.799653406807533 -15.602423735916675 5.214453421111878 35.64272757411816 -3.4992879822570746 1.0430554600826112 45.60930568659021 -0.033232807221266786 -0.8197479438606294 22.12304769204064 -11.331870477921315 2.432253035293827 26.554252766053658 -3.4338249907511873 1.5389260109628142 40.16022180597946 0.24966317518240186 -0.1871617768010134 17.812872063529923 -8.623132781892355 0.8982405005563081 15.807201827208806 -3.493245721350674 0.7745316096764816 33.390618211629736 -1.5230970658938583 0.18754021399287485 15.913372193460125 -4.5887117208705765 0.33649075018583546 7.8770445121919845 -2.53493959039556 0.3365323990498511 20.583246123694096 -0.049444319353306405 -0.21471250168456352 13.845823034096975 -0.47308556545633224 18.6487786514025 -11.237355470796969 -31.738194933930984 0.889398438464964 3.166417805990081 -7.69877602196745 1.6458745170557882 1.1069102626547194 -15.134447220341581 3.1976071682224063 -7.102121649681392 -2.5585505147649186 4.762742281590225 -79.854120566572 -18.81472719522904 0.039523476401111694 0.23869075844484677 -1.5712099458614457 -26.342753131142295 -9.742524707069045 15.955166818418926 5.477259149522412 -37.27416104722952 3.5782228022001656 1.4143111324176787 -47.428065364823695 2.700192310553877 0.5777514270860111 -22.16430302848481 11.345848470186167 2.572909184706246 -28.223723158481356 3.514059336975017 1.6481458529831918 -41.92803952350109 1.715598968834864 0.5663141321736597 -20.978789797347627 8.743288215189265 0.9889654094294061 -17.470663843414606 3.7125167493017854 0.877586836750391 -35.11673588304213 1.4564337877559763 0.18675860673059538 -13.736572182866505 4.71088401986963 0.355407730890928 -9.546260532698119 2.708067366835229 0.3950284275789964 -22.207591367156304 0.8060368463683235 0.04199816328656301 -11.637127640439578 0.36209900567129993 18.62557192576213 11.179696260805187 31.85290613436953 0.9234722734494211 -3.123013765707467 8.67155590571035 1.805812714001739 -0.29955453781794433 -4.744241811405585 -1.63379881301774 10.20100901933822 -4.864032417455973 12.879485394084117 2.261807979902941 0.6871854271356816 -9.861199673557925 -7.619880746313205 0.000003013037062307454 -0.6155813611678654 -0.0000032153656005155562 11.595532598245446 -18.634682683450155 11.365255879150476 10.750628198455702 21.48331397964745 6.404946740977568 3.256845240675581 -1.38287136968366 -8.696017505414014 0.00000629199124723589 -0.4569370285867109 6.333955650939004e-7
0.1565527766942978 -0.2883193963330086 -0.039628878235816956 1.3698357512152435 -1.7008375453627296 -5.103258668417278 -1.3196343939506059 1.8785687849421664 2.849768628640357 1.2324731287258444 1.8248985846355226 11.757777943624282 -0.4779736284477438 0.5107805847076633 -2.0933771138440904 -0.1537862068364424 0.13291541370005316 -8.25117168784711 0 0 0 0 0 0 0 0 0 5.602669501001267 4.224054120461118 8.999993513327928 12.835222621616161 3.308150047637359 60.326037907534605 18.817307256054416 0.03957273848522491 -0.23871975982430252 -8.159609308703587 -12.513799484923704 21.0638394593562 -15.602432915563352 5.214453849772712 35.642720002040505 -3.499292243872384 1.043064853149183 45.609296026189284 -0.03321428911306331 -0.8197465029701297 22.123038495820733 -11.33187299157512 2.432251112570942 26.554252766053658 -3.4338333030974497 1.5389378613465041 40.16023885945496 0.24967091247398976 -0.18716076293939923 17.812858013236944 -8.623133626118609 0.8982451968884774 15.807231621983991 -3.493243803754019 0.7745247254974674 33.39059643477188 -1.5230878910208712 0.1875367721994264 15.913372193460125 -4.588715976128968 0.336488348906045 7.8770419749947225 -2.534940016872011 0.3365406968056115 20.583243324466615 -0.049443001998495134 -0.21470863299556486 13.845833810726708 -0.47308247129119657 18.64880027741205 -11.237357759386892 -31.73821194300995 0.8893895794960816 3.166403525393374 -7.698773482686479 1.645868538173619 1.1069135717754046 -16.294140119979694 2.9766689445929435 -7.763503339511301 -6.662796426242906 5.176138738720549 -77.39101938051164 -23.13881354819568 0.05948552889057749 0.2908441441165416 -4.048286182376724 -26.871939953359547 -10.727457527478927 16.131481548062403 5.631266650022642 -39.92633612241953 3.757110832137262 1.59748181264008 -50.348473761853555 2.9004206012607816 0.6931253462236459 -24.785369674772518 11.33684596025608 2.7807339033683838 -30.909210224964244 3.6738368491899016 1.8371374890914227 -44.764257730641745 1.9141969222194217 0.6750351545374782 -23.599124197333573 9.01719122821325 1.173355580318775 -20.14565243767358 3.909636347360997 1.0167343821664419 -37.88703418544172 1.6528357469262662 0.24620399766256965 -16.09619319269276 4.943974242464601 0.39996047645935523 -12.231062615211773 2.9190634068788985 0.4871764766562811 -24.822050794687613 1.0113061358621893 0.07973980291824867 -13.997190753875293 0.3621002953973893 18.625577331525776 11.179689189893942 31.852910838064656 0.9234598921234083 -3.123035480350778 8.671559283444042 1.8058011823305604 -0.29954874536791226 -4.708994027195436 -1.6783931767674831 9.805509603179571 -4.761860028257304 13.305274824284265 2.2486222123504533 0.4989847249221644 -9.893487310770466 -7.3429868762701025 0.0000047597030990110435 -0.6733842688975268 0.0000014398993244552026 11.511716669254827 -18.273235780734343 10.908385178902407 10.848795700506717 21.369166082184556 6.641323572927331 3.4014236839490493 -1.316507484450193 -8.509618396563724 -0.000004078089653608834 -0.4368700960116377 0.000004188658924691744
